<?xml version="1.0" encoding="UTF-8"?>
<svg version="1.1" xmlns="http://www.w3.org/2000/svg" width="64" height="64">
<path d="M0 0 C-0.66982885 4.7539242 -2.5214324 8.73970644 -4.5 13.0625 C-4.85208023 13.84317841 -5.20416046 14.62385681 -5.56690979 15.42819214 C-6.31878194 17.09421651 -7.07292171 18.75921906 -7.82913208 20.42327881 C-9.78050194 24.71764538 -11.71571973 29.01928099 -13.65234375 33.3203125 C-14.03164536 34.16159698 -14.41094696 35.00288147 -14.80174255 35.86965942 C-18.99854222 45.19096213 -23.03462672 54.57800195 -27 64 C-27.66 64 -28.32 64 -29 64 C-29.13647949 63.25951416 -29.27295898 62.51902832 -29.41357422 61.75610352 C-32.13939309 47.11113561 -32.13939309 47.11113561 -40.97802734 35.88525391 C-48.29350302 32.41771215 -56.05970737 30.4634812 -64 29 C-64 28.34 -64 27.68 -64 27 C-62.86272461 26.50185791 -61.72544922 26.00371582 -60.55371094 25.49047852 C-56.22921609 23.5959711 -51.90530349 21.70013775 -47.58154297 19.80395508 C-45.72980717 18.99208436 -43.87792511 18.18054714 -42.02587891 17.36938477 C-39.32413323 16.18599371 -36.62292016 15.00139525 -33.921875 13.81640625 C-32.57784607 13.22758163 -32.57784607 13.22758163 -31.20666504 12.62686157 C-26.5503312 10.58146099 -21.90806271 8.5097354 -17.28320312 6.39404297 C-16.3667804 5.97597885 -15.45035767 5.55791473 -14.50616455 5.12718201 C-12.75807756 4.32767036 -11.01215438 3.52340573 -9.26873779 2.71376038 C-8.09785614 2.17857033 -8.09785614 2.17857033 -6.90332031 1.63256836 C-6.21957336 1.31638046 -5.53582642 1.00019257 -4.83135986 0.67442322 C-3 0 -3 0 0 0 Z " fill="#76DC00" transform="translate(64,0)"/>
<path d="M0 0 C1.46675246 4.40025737 -0.65737014 7.30967564 -2.5234375 11.3046875 C-2.90058899 12.13267853 -3.27774048 12.96066956 -3.6663208 13.81375122 C-4.89397902 16.5048462 -6.13456769 19.18977274 -7.375 21.875 C-8.62732455 24.61363397 -9.87608506 27.35387273 -11.1244812 30.09429932 C-11.94595994 31.89730963 -12.76848575 33.69984326 -13.59207153 35.50189209 C-16.69442337 42.29694835 -19.70778537 49.12308264 -22.625 56 C-22.98384277 56.84546387 -23.34268555 57.69092773 -23.71240234 58.56201172 C-24.4783168 60.3732481 -25.23986 62.18633262 -26 64 C-26.66 64 -27.32 64 -28 64 C-29.37425469 60.27792979 -30.72079902 56.54641575 -32.0625 52.8125 C-32.45244141 51.75740234 -32.84238281 50.70230469 -33.24414062 49.61523438 C-33.60830078 48.59365234 -33.97246094 47.57207031 -34.34765625 46.51953125 C-34.68804932 45.58214111 -35.02844238 44.64475098 -35.37915039 43.67895508 C-36.12467124 40.46204581 -36.21793624 39.08925058 -35 36 C-32.95075745 33.43083084 -30.62521045 31.18462521 -28.26171875 28.90625 C-27.584543 28.23710571 -26.90736725 27.56796143 -26.20967102 26.87854004 C-24.04486526 24.74270671 -21.86688901 22.62094165 -19.6875 20.5 C-17.52143711 18.37656003 -15.35823652 16.25028277 -13.19746399 14.12145996 C-11.85327594 12.79882025 -10.50559999 11.47971319 -9.15397644 10.16467285 C-5.85294082 6.93310294 -2.79287141 3.69633131 0 0 Z " fill="#66BC00" transform="translate(63,0)"/>
</svg>
